<svg xmlns="http://www.w3.org/2000/svg" viewBox="0 0 512 512">
  <defs>
    <linearGradient id="bg" x1="0" y1="0" x2="1" y2="1">
      <stop offset="0%" stop-color="#047857" />
      <stop offset="100%" stop-color="#0ea5a4" />
    </linearGradient>
  </defs>
  <rect x="0" y="0" width="512" height="512" rx="112" fill="url(#bg)" />
  <g fill="#ffffff">
    <path d="M182 356c0-56 48-86 98-102-34-16-56-44-56-84 0-54 40-94 98-94 18 0 34 4 50 12l-22 52c-10-4-18-6-28-6-26 0-44 18-44 44 0 34 32 52 70 66v58c-52 14-88 30-88 54h120v54H182z" />
    <rect x="172" y="408" width="190" height="30" rx="10" />
  </g>
  <g transform="translate(332 62)">
    <rect x="0" y="14" width="132" height="18" rx="8" fill="#ffffff" />
    <path d="M20 30h92l-16 42H36z" fill="#ffffff" />
    <rect x="22" y="0" width="12" height="24" rx="5" fill="#ffffff" />
    <rect x="98" y="0" width="12" height="24" rx="5" fill="#ffffff" />
    <circle cx="66" cy="10" r="9" fill="#ffffff" />
  </g>
</svg>
