<svg xmlns="http://www.w3.org/2000/svg" viewBox="0 0 512 512">
  <defs>
    <linearGradient id="bg" x1="0" y1="0" x2="1" y2="1">
      <stop offset="0%" stop-color="#312e81" />
      <stop offset="100%" stop-color="#6d28d9" />
    </linearGradient>
  </defs>
  <rect x="0" y="0" width="512" height="512" rx="112" fill="url(#bg)" />
  <g fill="#ffffff">
    <circle cx="256" cy="112" r="26" />
    <rect x="244" y="132" width="24" height="46" rx="8" />
    <path d="M184 200l28-48 44 34 44-34 28 48-30 16h-84z" />
    <rect x="216" y="220" width="80" height="122" rx="18" />
    <rect x="184" y="344" width="144" height="28" rx="10" />
    <rect x="166" y="378" width="180" height="30" rx="10" />
  </g>
  <g transform="translate(336 334)">
    <circle cx="58" cy="58" r="54" fill="#0f172a" fill-opacity="0.22" />
    <circle cx="58" cy="58" r="42" fill="none" stroke="#ffffff" stroke-width="14" />
    <g fill="#ffffff">
      <rect x="54" y="8" width="8" height="20" rx="4" />
      <rect x="54" y="88" width="8" height="20" rx="4" />
      <rect x="8" y="54" width="20" height="8" rx="4" />
      <rect x="88" y="54" width="20" height="8" rx="4" />
      <rect x="18" y="22" width="8" height="18" rx="4" transform="rotate(-45 22 31)" />
      <rect x="90" y="22" width="8" height="18" rx="4" transform="rotate(45 94 31)" />
      <rect x="18" y="76" width="8" height="18" rx="4" transform="rotate(45 22 85)" />
      <rect x="90" y="76" width="8" height="18" rx="4" transform="rotate(-45 94 85)" />
    </g>
  </g>
</svg>
